HIERARCHY
ROOT Hips
{
	OFFSET 0.00 0.00 0.00
	CHANNELS 6 Xposition Yposition Zposition Xrotation Yrotation Zrotation
	JOINT Spine
	{
		OFFSET 0.00000 1.70439 2.55658
		CHANNELS 3 Xrotation Yrotation Zrotation
		JOINT Spine1
		{
			OFFSET 0.00000 0.59193 3.35699
			CHANNELS 3 Xrotation Yrotation Zrotation
			JOINT Spine2
			{
				OFFSET 0.00000 0.29710 3.39581
				CHANNELS 3 Xrotation Yrotation Zrotation
				JOINT Spine3
				{
					OFFSET 0.00000 0.00000 3.40878
					CHANNELS 3 Xrotation Yrotation Zrotation
					JOINT Neck
					{
						OFFSET 0.00000 -1.27828 8.94804
						CHANNELS 3 Xrotation Yrotation Zrotation
						JOINT Head
						{
							OFFSET 0.00000 -0.81390 4.61586
							CHANNELS 3 Xrotation Yrotation Zrotation
							End Site
							{
								OFFSET 0.00000 0.00001 5.51796
							}
						}
					}
					JOINT RightShoulder
					{
						OFFSET -1.18875 -1.98124 6.41925
						CHANNELS 3 Xrotation Yrotation Zrotation
						JOINT RightArm
						{
							OFFSET -5.90412 0.00000 0.00000
							CHANNELS 3 Xrotation Yrotation Zrotation
							JOINT RightForeArm
							{
								OFFSET -11.94674 0.00000 0.00000
								CHANNELS 3 Xrotation Yrotation Zrotation
								JOINT RightHand
								{
									OFFSET -10.17720 0.00000 0.00000
									CHANNELS 3 Xrotation Yrotation Zrotation
									JOINT RightHandEnd
									{
										OFFSET -2.84518 0.00000 0.00000
										CHANNELS 3 Xrotation Yrotation Zrotation
										End Site
										{
											OFFSET -2.84518 0.00000 0.00000
										}
									}
									JOINT RightHandThumb1
									{
										OFFSET -1.13807 -1.89679 -0.75871
										CHANNELS 3 Yrotation Xrotation Zrotation
										End Site
										{
											OFFSET -2.74823 -0.73639 0.00000
										}
									}
								}
							}
						}
					}
					JOINT LeftShoulder
					{
						OFFSET 1.18875 -1.98124 6.41925
						CHANNELS 3 Xrotation Yrotation Zrotation
						JOINT LeftArm
						{
							OFFSET 5.90412 0.00000 0.00000
							CHANNELS 3 Xrotation Yrotation Zrotation
							JOINT LeftForeArm
							{
								OFFSET 11.94674 0.00000 0.00000
								CHANNELS 3 Xrotation Yrotation Zrotation
								JOINT LeftHand
								{
									OFFSET 10.17720 0.00000 0.00000
									CHANNELS 3 Xrotation Yrotation Zrotation
									JOINT LeftHandEnd
									{
										OFFSET 2.84518 0.00000 0.00000
										CHANNELS 3 Xrotation Yrotation Zrotation
										End Site
										{
											OFFSET 2.84518 0.00000 0.00000
										}
									}
									JOINT LeftHandThumb1
									{
										OFFSET 1.13807 -1.89679 -0.75871
										CHANNELS 3 Yrotation Xrotation Zrotation
										End Site
										{
											OFFSET 2.74823 -0.73639 0.00000
										}
									}
								}
							}
						}
					}
				}
			}
		}
	}
	JOINT RightUpLeg
	{
		OFFSET -3.52662 0.00000 -1.03025
		CHANNELS 3 Xrotation Yrotation Zrotation
		JOINT RightLeg
		{
			OFFSET 0.00001 0.00000 -17.80159
			CHANNELS 3 Xrotation Yrotation Zrotation
			JOINT RightFoot
			{
				OFFSET 0.00001 0.00000 -16.85992
				CHANNELS 3 Xrotation Yrotation Zrotation
				JOINT RightToeBase
				{
					OFFSET 0.00000 -5.42953 -1.97619
					CHANNELS 3 Xrotation Yrotation Zrotation
					End Site
					{
						OFFSET 0.00000 -2.85300 -0.00000
					}
				}
			}
		}
	}
	JOINT LeftUpLeg
	{
		OFFSET 3.52662 0.00000 -1.03025
		CHANNELS 3 Xrotation Yrotation Zrotation
		JOINT LeftLeg
		{
			OFFSET 0.00001 0.00000 -17.80159
			CHANNELS 3 Xrotation Yrotation Zrotation
			JOINT LeftFoot
			{
				OFFSET 0.00001 0.00000 -16.85992
				CHANNELS 3 Xrotation Yrotation Zrotation
				JOINT LeftToeBase
				{
					OFFSET 0.00000 -5.42953 -1.97619
					CHANNELS 3 Xrotation Yrotation Zrotation
					End Site
					{
						OFFSET 0.00000 -2.85300 -0.00000
					}
				}
			}
		}
	}
}
MOTION
Frames: 13
Frame Time: 0.008342
 -1.0245 -2.5124 44.7074 2.2994 3.3213 174.1674 1.5818 -0.8817 0.2305 1.5242 -1.5244 -0.0998 -2.4475 -1.4923 0.8233 -0.6710 0.4319 0.3765 11.8007 -2.6190 -1.2565 3.5920 2.9198 -0.3340 -3.8354 21.3259 8.5708 -52.2549 0.4686 14.1863 -0.0000 0.0001 65.0925 -7.4682 54.8583 10.5530 0.0000 0.0000 0.0000 0.0000 0.0000 0.0000 18.9363 6.2205 -1.3197 -11.9516 51.5211 7.4583 -0.0000 -0.0000 -39.5091 -6.9441 -22.1236 3.3436 0.0000 -0.0000 0.0000 0.0000 0.0000 0.0000 -2.9359 17.8088 -26.0286 22.3984 0.0000 0.0000 21.6886 -7.7214 -5.7281 -1.3261 0.0000 -0.0000 -7.5477 -6.9506 4.8338 28.7912 0.0000 0.0000 22.7578 9.8588 -0.4902 -10.0010 0.0000 -0.0000
 -1.0418 -2.4829 44.8013 2.6116 3.3092 173.3654 1.8733 -0.8943 0.2053 1.6226 -1.5732 -0.0929 -2.4767 -1.4061 1.1249 -0.6899 0.4910 0.3598 11.8254 -2.6611 -0.9696 3.7210 3.0514 -0.2127 -3.3521 21.9503 8.7599 -49.6542 1.3664 15.2095 -0.0000 0.0001 68.6907 -6.1323 55.9356 15.5252 0.0000 0.0000 0.0000 -0.0000 0.0000 -0.0000 18.8864 6.7934 -1.0685 -9.5022 53.4847 5.1545 -0.0000 -0.0000 -39.2214 -6.8634 -22.3577 3.2742 0.0000 0.0000 0.0000 -0.0000 -0.0000 0.0000 -3.3089 17.8099 -25.2399 23.1635 0.0000 0.0000 21.4583 -7.7703 -6.2212 -1.8527 0.0000 -0.0000 -7.4238 -6.9156 5.3149 28.8570 0.0000 0.0000 22.8755 9.8333 -1.2545 -10.6494 0.0000 -0.0000
 -1.0524 -2.4477 44.8691 2.9131 3.2758 172.5865 2.1230 -0.9015 0.1830 1.7033 -1.6158 -0.0825 -2.4830 -1.3163 1.4561 -0.7020 0.5633 0.3448 11.8802 -2.7572 -0.6977 3.8336 3.1722 -0.1213 -3.0410 22.4883 9.0197 -46.9859 2.5378 16.3311 -0.0000 0.0001 71.6249 -4.2196 55.9303 21.2614 0.0000 0.0000 -0.0000 -0.0000 -0.0000 0.0000 18.7529 7.3798 -0.8559 -7.2343 55.2301 2.9293 -0.0000 -0.0000 -38.8434 -6.9032 -22.6963 3.2471 -0.0000 0.0000 -0.0000 0.0000 -0.0000 -0.0000 -3.5959 17.7729 -24.6924 23.7274 0.0000 0.0000 21.3056 -7.7961 -6.5123 -2.3092 0.0000 -0.0000 -7.2574 -6.9141 5.8090 28.7792 0.0000 0.0000 23.0420 9.8206 -1.9044 -11.2095 0.0000 -0.0000
 -1.0564 -2.4073 44.9104 3.1946 3.2209 171.8599 2.3216 -0.8981 0.1652 1.7653 -1.6637 -0.0743 -2.4712 -1.2177 1.8036 -0.7047 0.6449 0.3302 11.9712 -2.9005 -0.4513 3.9253 3.2775 -0.0591 -2.9091 22.9315 9.3563 -44.4149 3.9032 17.5336 -0.0000 0.0001 73.8453 -0.7169 54.8964 26.1496 0.0000 -0.0000 0.0000 -0.0000 -0.0000 -0.0000 18.5752 7.9703 -0.7023 -5.2117 56.7656 0.8482 -0.0000 -0.0000 -38.3816 -7.0523 -23.1171 3.2511 -0.0000 0.0000 -0.0000 0.0000 -0.0000 0.0000 -3.7943 17.7001 -24.3878 24.0944 0.0000 0.0000 21.1457 -7.8077 -6.5986 -2.6393 0.0000 -0.0000 -7.0730 -6.9416 6.2841 28.5922 0.0000 0.0000 23.1972 9.8395 -2.3792 -11.6257 0.0000 -0.0000
 -1.0543 -2.3620 44.9251 3.4573 3.1518 171.2114 2.4666 -0.8846 0.1510 1.8113 -1.6999 -0.0613 -2.4389 -1.1218 2.1392 -0.7014 0.7341 0.3180 12.0990 -3.0824 -0.2387 3.9959 3.3609 -0.0254 -2.9413 23.2977 9.7647 -42.0299 5.3501 18.7783 -0.0000 0.0001 75.3801 4.6249 53.4690 28.8448 -0.0000 -0.0000 0.0000 -0.0000 -0.0000 0.0000 18.3913 8.5524 -0.6288 -3.4649 58.1000 -1.0557 -0.0000 -0.0000 -37.8431 -7.3036 -23.5984 3.2664 0.0000 0.0000 0.0000 0.0000 -0.0000 0.0000 -3.8977 17.6045 -24.3322 24.2794 0.0000 0.0000 20.9054 -7.8135 -6.4717 -2.8069 0.0000 -0.0000 -6.8844 -6.9869 6.7184 28.3279 0.0000 0.0000 23.2992 9.8999 -2.6434 -11.8559 0.0000 -0.0000
 -1.0464 -2.3140 44.9124 3.6757 3.0674 170.6615 2.5421 -0.8741 0.1414 1.8345 -1.7169 -0.0419 -2.3905 -1.0255 2.4382 -0.6875 0.8253 0.3093 12.2587 -3.2945 -0.0650 4.0460 3.4185 -0.0150 -3.1303 23.6022 10.2496 -39.8180 6.7790 20.0206 -0.0000 0.0001 76.2257 10.8827 52.3487 29.2200 0.0000 0.0000 -0.0000 0.0000 0.0000 0.0000 18.2326 9.1172 -0.6493 -2.0088 59.2390 -2.7636 -0.0000 -0.0000 -37.2429 -7.6349 -24.1049 3.2841 -0.0000 -0.0000 -0.0000 -0.0000 0.0000 -0.0000 -3.9366 17.4809 -24.5119 24.3027 0.0000 0.0000 20.5366 -7.8354 -6.1405 -2.7954 0.0000 -0.0000 -6.7409 -7.0544 7.0907 28.0323 0.0000 0.0000 23.3176 10.0071 -2.6836 -11.8717 0.0000 -0.0000
 -1.0329 -2.2649 44.8718 3.8474 2.9648 170.2222 2.5521 -0.8539 0.1400 1.8450 -1.7488 -0.0407 -2.3401 -0.9168 2.7215 -0.6611 0.9208 0.2880 12.4409 -3.5280 0.0666 4.0808 3.4449 -0.0198 -3.4444 23.8731 10.8049 -37.7713 8.0829 21.2055 -0.0000 0.0001 76.3140 16.7966 51.8891 27.9737 0.0000 -0.0000 -0.0000 0.0000 0.0000 0.0000 18.1138 9.6501 -0.7648 -0.8076 60.1922 -4.2979 -0.0000 -0.0000 -36.5923 -8.0356 -24.5972 3.2815 0.0000 -0.0000 0.0000 0.0000 0.0000 0.0000 -3.9182 17.3223 -24.9109 24.1796 0.0000 0.0000 20.0249 -7.9018 -5.6178 -2.6062 0.0000 -0.0000 -6.6608 -7.1492 7.3891 27.7376 0.0000 0.0000 23.2459 10.1558 -2.5138 -11.6596 0.0000 -0.0000
 -1.0169 -2.2159 44.8030 3.9708 2.8800 169.8897 2.4997 -0.8105 0.1419 1.8364 -1.7655 -0.0366 -2.2832 -0.8018 2.9471 -0.6279 1.0097 0.2687 12.6396 -3.7628 0.1559 4.1034 3.4328 -0.0302 -3.8607 24.1224 11.4539 -35.9062 9.1964 22.2819 -0.0000 0.0001 75.5605 21.4304 52.1553 25.9495 -0.0000 0.0000 -0.0000 0.0000 -0.0000 0.0000 18.0557 10.1463 -0.9759 0.1891 60.9671 -5.7041 -0.0000 -0.0000 -35.9043 -8.4897 -25.0411 3.2470 0.0000 -0.0000 -0.0000 0.0000 -0.0000 0.0000 -3.8736 17.1729 -25.5076 23.9458 0.0000 0.0000 19.3828 -8.0386 -4.9061 -2.2598 0.0000 -0.0000 -6.6546 -7.2265 7.6024 27.4471 0.0000 0.0000 23.1080 10.3414 -2.1489 -11.2206 0.0000 -0.0000
 -0.9952 -2.1673 44.7062 4.0769 2.7604 169.6652 2.4315 -0.7827 0.1423 1.8143 -1.7640 -0.0277 -2.2285 -0.6968 3.1071 -0.5873 1.0954 0.2503 12.8406 -3.9891 0.2052 4.1229 3.3787 -0.0404 -4.3430 24.3728 12.1875 -34.2928 10.0098 23.2300 -0.0000 0.0001 73.9268 24.3041 53.0653 23.7888 -0.0000 -0.0000 -0.0000 -0.0000 -0.0000 0.0000 18.0708 10.5891 -1.2726 1.0841 61.5697 -7.0783 -0.0000 -0.0000 -35.1904 -8.9889 -25.4149 3.1765 0.0000 -0.0000 -0.0000 -0.0000 0.0000 0.0000 -3.7547 16.9649 -26.2791 23.5799 0.0000 0.0000 18.6765 -8.2816 -4.0455 -1.7895 0.0000 -0.0000 -6.6919 -7.3466 7.7409 27.1847 0.0000 0.0000 22.9280 10.5394 -1.6684 -10.5791 0.0000 -0.0000
 -0.9716 -2.1206 44.5809 4.1513 2.6509 169.5252 2.3355 -0.7306 0.1476 1.7789 -1.7603 -0.0240 -2.1800 -0.5859 3.2117 -0.5414 1.1758 0.2281 13.0388 -4.1971 0.2221 4.1420 3.2854 -0.0391 -4.8701 24.6032 13.0335 -32.9921 10.4964 24.0600 -0.0000 0.0001 71.4367 25.2118 54.4595 21.8868 -0.0000 -0.0000 -0.0000 -0.0000 -0.0000 0.0000 18.1345 10.9738 -1.6423 1.9175 62.0158 -8.4160 -0.0000 -0.0000 -34.4794 -9.4976 -25.6808 3.0791 -0.0000 0.0000 -0.0000 -0.0000 0.0000 -0.0000 -3.6218 16.7516 -27.1861 23.1265 0.0000 0.0000 17.9728 -8.6432 -3.0512 -1.2485 0.0000 -0.0000 -6.7861 -7.4572 7.8079 26.9311 0.0000 0.0000 22.7617 10.7428 -1.1149 -9.7761 0.0000 -0.0000
 -0.9460 -2.0768 44.4269 4.1930 2.5374 169.4531 2.2166 -0.6711 0.1519 1.7356 -1.7458 -0.0227 -2.1380 -0.4827 3.2633 -0.4924 1.2505 0.2046 13.2221 -4.3686 0.2148 4.1677 3.1520 -0.0231 -5.4127 24.8231 13.9735 -32.0858 10.5859 24.8234 -0.0000 0.0001 68.1732 24.0995 56.0758 20.4877 -0.0000 -0.0000 -0.0000 -0.0000 -0.0000 -0.0000 18.2589 11.3000 -2.0617 2.8192 62.3013 -9.8554 -0.0000 -0.0000 -33.7757 -10.0150 -25.8528 2.9597 -0.0000 0.0000 -0.0000 0.0000 -0.0000 0.0000 -3.4897 16.5121 -28.1886 22.5949 0.0000 0.0000 17.3628 -9.1271 -1.9646 -0.7021 0.0000 -0.0000 -6.9345 -7.5747 7.8105 26.6880 0.0000 0.0000 22.6527 10.9415 -0.5597 -8.8747 0.0000 -0.0000
 -0.9193 -2.0361 44.2440 4.2064 2.4278 169.4247 2.0812 -0.5996 0.1583 1.6856 -1.7269 -0.0268 -2.1021 -0.3782 3.2696 -0.4432 1.3175 0.1800 13.3886 -4.4966 0.1937 4.2004 2.9857 0.0119 -5.9666 25.0207 15.0225 -31.6295 10.2511 25.5550 -0.0000 0.0001 64.2911 21.0089 57.5447 19.7092 -0.0000 0.0000 0.0000 -0.0000 -0.0000 0.0000 18.4259 11.5639 -2.5144 3.8404 62.4358 -11.4177 -0.0000 -0.0000 -33.1012 -10.5174 -25.9346 2.8325 -0.0000 0.0000 -0.0000 0.0000 -0.0000 -0.0000 -3.3775 16.2566 -29.2459 22.0097 0.0000 0.0000 16.9259 -9.7117 -0.8198 -0.2230 0.0000 -0.0000 -7.1193 -7.6884 7.7612 26.4359 0.0000 0.0000 22.6468 11.1326 -0.0638 -7.9564 0.0000 -0.0000
 -0.8908 -1.9983 44.0322 4.1958 2.3022 169.4158 1.9398 -0.5354 0.1633 1.6349 -1.7038 -0.0303 -2.0783 -0.2814 3.2420 -0.3957 1.3804 0.1519 13.5364 -4.5732 0.1692 4.2432 2.7951 0.0676 -6.5370 25.1858 16.1828 -31.6795 9.4604 26.2933 -0.0000 0.0001 59.9936 16.1474 58.4574 19.4986 0.0000 -0.0000 -0.0000 -0.0000 0.0000 -0.0000 18.6074 11.7689 -2.9754 5.0273 62.4265 -13.1169 -0.0000 -0.0000 -32.4739 -10.9859 -25.9429 2.7043 -0.0000 0.0000 -0.0000 0.0000 -0.0000 0.0000 -3.2901 15.9593 -30.3067 21.3810 0.0000 0.0000 16.7258 -10.3601 0.3345 0.1157 0.0000 0.0000 -7.3242 -7.8201 7.6698 26.1752 0.0000 0.0000 22.7629 11.3199 0.3192 -7.1136 0.0000 -0.0000
